<svg xmlns="http://www.w3.org/2000/svg" xmlns:xlink="http://www.w3.org/1999/xlink" width="290" zoomAndPan="magnify" viewBox="0 0 217.5 209.999996" height="280" preserveAspectRatio="xMidYMid meet" version="1.0"><defs><clipPath id="id1"><path d="M 184 66 L 217 66 L 217 131 L 184 131 Z M 184 66 " clip-rule="nonzero"/></clipPath><clipPath id="id2"><path d="M 78 173 L 138 173 L 138 196.089844 L 78 196.089844 Z M 78 173 " clip-rule="nonzero"/></clipPath></defs><path fill="rgb(0%, 0%, 0%)" d="M 108.691406 132.101562 L 65.285156 132.101562 C 64.894531 132.101562 64.519531 132.023438 64.15625 131.875 C 63.796875 131.726562 63.476562 131.511719 63.203125 131.238281 C 62.925781 130.960938 62.714844 130.640625 62.5625 130.28125 C 62.414062 129.921875 62.339844 129.542969 62.339844 129.152344 L 62.339844 58.074219 C 62.339844 57.683594 62.414062 57.308594 62.5625 56.945312 C 62.714844 56.585938 62.925781 56.265625 63.203125 55.992188 C 63.476562 55.714844 63.796875 55.5 64.15625 55.351562 C 64.519531 55.203125 64.894531 55.128906 65.285156 55.128906 L 89.769531 55.128906 C 90.484375 55.128906 91.199219 55.164062 91.910156 55.234375 C 92.625 55.304688 93.332031 55.410156 94.035156 55.550781 C 94.734375 55.691406 95.429688 55.867188 96.113281 56.074219 C 96.800781 56.285156 97.472656 56.523438 98.132812 56.800781 C 98.792969 57.074219 99.441406 57.378906 100.070312 57.71875 C 100.703125 58.054688 101.316406 58.425781 101.910156 58.824219 C 102.507812 59.222656 103.082031 59.648438 103.632812 60.101562 C 104.1875 60.554688 104.71875 61.035156 105.222656 61.542969 C 105.730469 62.050781 106.210938 62.578125 106.664062 63.132812 C 107.117188 63.6875 107.542969 64.261719 107.941406 64.855469 C 108.339844 65.453125 108.707031 66.066406 109.046875 66.699219 C 109.382812 67.328125 109.6875 67.976562 109.964844 68.636719 C 110.238281 69.300781 110.480469 69.972656 110.6875 70.65625 C 110.894531 71.34375 111.070312 72.039062 111.210938 72.738281 C 111.351562 73.441406 111.457031 74.148438 111.527344 74.863281 C 111.597656 75.574219 111.632812 76.289062 111.632812 77.007812 L 111.632812 129.152344 C 111.632812 129.542969 111.558594 129.921875 111.410156 130.28125 C 111.261719 130.640625 111.046875 130.960938 110.773438 131.238281 C 110.496094 131.511719 110.179688 131.726562 109.816406 131.875 C 109.457031 132.023438 109.082031 132.101562 108.691406 132.101562 Z M 68.226562 126.207031 L 105.746094 126.207031 L 105.746094 77.007812 C 105.746094 76.484375 105.71875 75.960938 105.667969 75.441406 C 105.617188 74.917969 105.539062 74.402344 105.4375 73.886719 C 105.335938 73.375 105.207031 72.867188 105.054688 72.367188 C 104.902344 71.867188 104.726562 71.375 104.527344 70.890625 C 104.324219 70.40625 104.101562 69.933594 103.855469 69.472656 C 103.609375 69.011719 103.339844 68.5625 103.046875 68.128906 C 102.757812 67.695312 102.445312 67.273438 102.113281 66.867188 C 101.78125 66.464844 101.433594 66.078125 101.0625 65.707031 C 100.691406 65.335938 100.304688 64.984375 99.902344 64.652344 C 99.496094 64.320312 99.078125 64.011719 98.640625 63.71875 C 98.207031 63.429688 97.757812 63.160156 97.296875 62.914062 C 96.835938 62.664062 96.363281 62.441406 95.882812 62.242188 C 95.398438 62.039062 94.90625 61.863281 94.40625 61.710938 C 93.90625 61.558594 93.398438 61.433594 92.886719 61.328125 C 92.371094 61.226562 91.855469 61.148438 91.335938 61.097656 C 90.816406 61.046875 90.292969 61.019531 89.769531 61.019531 L 68.226562 61.019531 Z M 68.226562 126.207031 " fill-opacity="1" fill-rule="nonzero"/><path fill="rgb(0%, 0%, 0%)" d="M 153.292969 65.023438 L 152.152344 65.023438 L 152.152344 70.917969 L 153.292969 70.917969 C 153.609375 70.917969 153.921875 70.949219 154.230469 71.011719 C 154.539062 71.074219 154.839844 71.164062 155.132812 71.285156 C 155.421875 71.40625 155.699219 71.554688 155.960938 71.730469 C 156.222656 71.90625 156.464844 72.105469 156.691406 72.328125 C 156.914062 72.550781 157.113281 72.792969 157.289062 73.054688 C 157.460938 73.320312 157.609375 73.59375 157.730469 73.886719 C 157.851562 74.179688 157.945312 74.480469 158.007812 74.789062 C 158.066406 75.097656 158.097656 75.410156 158.097656 75.726562 L 158.097656 131.292969 C 158.097656 131.609375 158.066406 131.921875 158.007812 132.230469 C 157.945312 132.539062 157.851562 132.839844 157.730469 133.132812 C 157.609375 133.425781 157.460938 133.703125 157.289062 133.964844 C 157.113281 134.226562 156.914062 134.46875 156.691406 134.691406 C 156.464844 134.917969 156.222656 135.117188 155.960938 135.289062 C 155.699219 135.464844 155.421875 135.613281 155.132812 135.734375 C 154.839844 135.855469 154.539062 135.949219 154.230469 136.011719 C 153.921875 136.070312 153.609375 136.101562 153.292969 136.101562 L 64.230469 136.101562 C 63.914062 136.101562 63.601562 136.070312 63.292969 136.011719 C 62.980469 135.949219 62.679688 135.855469 62.390625 135.734375 C 62.097656 135.613281 61.820312 135.464844 61.558594 135.289062 C 61.296875 135.117188 61.054688 134.917969 60.832031 134.691406 C 60.609375 134.46875 60.410156 134.226562 60.234375 133.964844 C 60.058594 133.703125 59.910156 133.425781 59.789062 133.132812 C 59.667969 132.839844 59.578125 132.539062 59.515625 132.230469 C 59.453125 131.921875 59.421875 131.609375 59.421875 131.292969 L 59.421875 75.726562 C 59.421875 75.410156 59.453125 75.097656 59.515625 74.789062 C 59.578125 74.480469 59.667969 74.179688 59.789062 73.886719 C 59.910156 73.59375 60.058594 73.320312 60.234375 73.054688 C 60.410156 72.792969 60.609375 72.550781 60.832031 72.328125 C 61.054688 72.105469 61.296875 71.90625 61.558594 71.730469 C 61.820312 71.554688 62.097656 71.40625 62.390625 71.285156 C 62.679688 71.164062 62.980469 71.074219 63.292969 71.011719 C 63.601562 70.949219 63.914062 70.917969 64.230469 70.917969 L 65.285156 70.917969 L 65.285156 65.023438 L 64.230469 65.023438 C 63.527344 65.027344 62.832031 65.09375 62.144531 65.234375 C 61.453125 65.371094 60.785156 65.574219 60.136719 65.84375 C 59.488281 66.113281 58.875 66.441406 58.289062 66.832031 C 57.707031 67.222656 57.167969 67.667969 56.667969 68.164062 C 56.171875 68.660156 55.730469 69.199219 55.339844 69.785156 C 54.949219 70.367188 54.621094 70.984375 54.351562 71.632812 C 54.082031 72.28125 53.878906 72.949219 53.742188 73.640625 C 53.605469 74.328125 53.535156 75.023438 53.535156 75.726562 L 53.535156 131.292969 C 53.535156 131.996094 53.605469 132.691406 53.742188 133.378906 C 53.878906 134.070312 54.082031 134.738281 54.351562 135.386719 C 54.621094 136.035156 54.949219 136.652344 55.339844 137.234375 C 55.730469 137.820312 56.171875 138.359375 56.667969 138.855469 C 57.167969 139.355469 57.707031 139.796875 58.289062 140.1875 C 58.875 140.578125 59.488281 140.90625 60.136719 141.175781 C 60.785156 141.445312 61.453125 141.648438 62.144531 141.789062 C 62.832031 141.925781 63.527344 141.996094 64.230469 141.996094 L 153.292969 141.996094 C 153.996094 141.996094 154.691406 141.925781 155.378906 141.789062 C 156.066406 141.648438 156.734375 141.445312 157.382812 141.175781 C 158.03125 140.90625 158.648438 140.578125 159.230469 140.1875 C 159.816406 139.796875 160.355469 139.355469 160.851562 138.855469 C 161.347656 138.359375 161.789062 137.820312 162.179688 137.234375 C 162.570312 136.652344 162.902344 136.035156 163.167969 135.386719 C 163.4375 134.738281 163.640625 134.070312 163.78125 133.378906 C 163.917969 132.691406 163.988281 131.996094 163.988281 131.292969 L 163.988281 75.726562 C 163.988281 75.023438 163.917969 74.328125 163.78125 73.640625 C 163.640625 72.953125 163.4375 72.28125 163.167969 71.632812 C 162.902344 70.984375 162.570312 70.367188 162.179688 69.785156 C 161.789062 69.199219 161.347656 68.660156 160.851562 68.164062 C 160.355469 67.667969 159.816406 67.222656 159.230469 66.832031 C 158.648438 66.441406 158.03125 66.113281 157.382812 65.84375 C 156.734375 65.574219 156.066406 65.371094 155.378906 65.234375 C 154.691406 65.09375 153.996094 65.027344 153.292969 65.023438 Z M 153.292969 65.023438 " fill-opacity="1" fill-rule="nonzero"/><path fill="rgb(0%, 0%, 0%)" d="M 152.152344 132.101562 L 108.746094 132.101562 C 108.355469 132.101562 107.980469 132.023438 107.617188 131.875 C 107.257812 131.726562 106.9375 131.511719 106.664062 131.238281 C 106.386719 130.960938 106.175781 130.640625 106.023438 130.28125 C 105.875 129.921875 105.800781 129.542969 105.800781 129.152344 L 105.800781 77.007812 C 105.800781 76.289062 105.835938 75.574219 105.910156 74.863281 C 105.980469 74.148438 106.085938 73.441406 106.226562 72.738281 C 106.367188 72.039062 106.539062 71.34375 106.75 70.65625 C 106.957031 69.972656 107.199219 69.300781 107.472656 68.636719 C 107.746094 67.976562 108.050781 67.328125 108.390625 66.699219 C 108.726562 66.066406 109.09375 65.453125 109.492188 64.855469 C 109.890625 64.261719 110.316406 63.6875 110.773438 63.132812 C 111.226562 62.578125 111.707031 62.050781 112.210938 61.542969 C 112.71875 61.035156 113.25 60.554688 113.800781 60.101562 C 114.355469 59.648438 114.929688 59.222656 115.523438 58.824219 C 116.121094 58.425781 116.730469 58.054688 117.363281 57.71875 C 117.996094 57.378906 118.640625 57.074219 119.300781 56.800781 C 119.964844 56.523438 120.636719 56.285156 121.320312 56.074219 C 122.007812 55.867188 122.699219 55.691406 123.402344 55.550781 C 124.105469 55.410156 124.8125 55.304688 125.523438 55.234375 C 126.234375 55.164062 126.949219 55.128906 127.664062 55.128906 L 152.152344 55.128906 C 152.542969 55.128906 152.917969 55.203125 153.277344 55.351562 C 153.640625 55.5 153.957031 55.714844 154.234375 55.992188 C 154.507812 56.265625 154.722656 56.585938 154.871094 56.945312 C 155.019531 57.308594 155.09375 57.683594 155.09375 58.074219 L 155.09375 129.152344 C 155.09375 129.542969 155.019531 129.921875 154.871094 130.28125 C 154.722656 130.640625 154.507812 130.960938 154.234375 131.238281 C 153.957031 131.511719 153.640625 131.726562 153.277344 131.875 C 152.917969 132.023438 152.542969 132.101562 152.152344 132.101562 Z M 111.6875 126.207031 L 149.207031 126.207031 L 149.207031 61.019531 L 127.664062 61.019531 C 127.140625 61.019531 126.621094 61.046875 126.101562 61.097656 C 125.578125 61.148438 125.0625 61.226562 124.550781 61.328125 C 124.035156 61.433594 123.53125 61.558594 123.03125 61.710938 C 122.527344 61.863281 122.039062 62.039062 121.554688 62.242188 C 121.070312 62.441406 120.597656 62.664062 120.136719 62.914062 C 119.675781 63.160156 119.226562 63.429688 118.792969 63.71875 C 118.359375 64.011719 117.9375 64.320312 117.535156 64.652344 C 117.128906 64.984375 116.742188 65.335938 116.375 65.707031 C 116.003906 66.078125 115.652344 66.464844 115.320312 66.871094 C 114.988281 67.273438 114.675781 67.695312 114.386719 68.128906 C 114.097656 68.5625 113.828125 69.011719 113.582031 69.472656 C 113.332031 69.933594 113.109375 70.40625 112.910156 70.890625 C 112.707031 71.375 112.53125 71.867188 112.378906 72.367188 C 112.226562 72.867188 112.101562 73.375 112 73.890625 C 111.894531 74.402344 111.820312 74.917969 111.765625 75.441406 C 111.714844 75.960938 111.6875 76.484375 111.6875 77.007812 Z M 111.6875 126.207031 " fill-opacity="1" fill-rule="nonzero"/><path fill="rgb(0%, 0%, 0%)" d="M 97.246094 87.113281 L 76.726562 87.113281 C 76.335938 87.113281 75.960938 87.039062 75.601562 86.890625 C 75.242188 86.742188 74.921875 86.527344 74.644531 86.25 C 74.371094 85.976562 74.15625 85.65625 74.007812 85.296875 C 73.859375 84.933594 73.785156 84.558594 73.785156 84.167969 C 73.785156 83.777344 73.859375 83.402344 74.007812 83.042969 C 74.15625 82.679688 74.371094 82.363281 74.644531 82.085938 C 74.921875 81.808594 75.242188 81.597656 75.601562 81.445312 C 75.960938 81.296875 76.335938 81.222656 76.726562 81.222656 L 97.246094 81.222656 C 97.636719 81.222656 98.011719 81.296875 98.375 81.445312 C 98.734375 81.597656 99.054688 81.808594 99.328125 82.085938 C 99.605469 82.363281 99.816406 82.679688 99.96875 83.042969 C 100.117188 83.402344 100.191406 83.777344 100.191406 84.167969 C 100.191406 84.558594 100.117188 84.933594 99.96875 85.296875 C 99.816406 85.65625 99.605469 85.976562 99.328125 86.25 C 99.054688 86.527344 98.734375 86.742188 98.375 86.890625 C 98.011719 87.039062 97.636719 87.113281 97.246094 87.113281 Z M 97.246094 87.113281 " fill-opacity="1" fill-rule="nonzero"/><path fill="rgb(0%, 0%, 0%)" d="M 97.246094 97.652344 L 76.726562 97.652344 C 76.335938 97.652344 75.960938 97.574219 75.601562 97.425781 C 75.242188 97.277344 74.921875 97.0625 74.644531 96.789062 C 74.371094 96.511719 74.15625 96.191406 74.007812 95.832031 C 73.859375 95.472656 73.785156 95.09375 73.785156 94.703125 C 73.785156 94.3125 73.859375 93.9375 74.007812 93.578125 C 74.15625 93.214844 74.371094 92.898438 74.644531 92.621094 C 74.921875 92.34375 75.242188 92.132812 75.601562 91.984375 C 75.960938 91.832031 76.335938 91.757812 76.726562 91.757812 L 97.246094 91.757812 C 97.636719 91.757812 98.011719 91.832031 98.375 91.984375 C 98.734375 92.132812 99.054688 92.34375 99.328125 92.621094 C 99.605469 92.898438 99.816406 93.214844 99.96875 93.578125 C 100.117188 93.9375 100.191406 94.3125 100.191406 94.703125 C 100.191406 95.09375 100.117188 95.472656 99.96875 95.832031 C 99.816406 96.191406 99.605469 96.511719 99.328125 96.789062 C 99.054688 97.0625 98.734375 97.277344 98.375 97.425781 C 98.011719 97.574219 97.636719 97.652344 97.246094 97.652344 Z M 97.246094 97.652344 " fill-opacity="1" fill-rule="nonzero"/><path fill="rgb(0%, 0%, 0%)" d="M 97.246094 108.1875 L 76.726562 108.1875 C 76.335938 108.1875 75.960938 108.113281 75.601562 107.960938 C 75.242188 107.8125 74.921875 107.601562 74.644531 107.324219 C 74.371094 107.046875 74.15625 106.730469 74.007812 106.367188 C 73.859375 106.007812 73.785156 105.632812 73.785156 105.242188 C 73.785156 104.851562 73.859375 104.476562 74.007812 104.113281 C 74.15625 103.753906 74.371094 103.433594 74.644531 103.15625 C 74.921875 102.882812 75.242188 102.667969 75.601562 102.519531 C 75.960938 102.371094 76.335938 102.296875 76.726562 102.296875 L 97.246094 102.296875 C 97.636719 102.296875 98.011719 102.371094 98.375 102.519531 C 98.734375 102.667969 99.054688 102.882812 99.328125 103.15625 C 99.605469 103.433594 99.816406 103.753906 99.96875 104.113281 C 100.117188 104.476562 100.191406 104.851562 100.191406 105.242188 C 100.191406 105.632812 100.117188 106.007812 99.96875 106.367188 C 99.816406 106.730469 99.605469 107.046875 99.328125 107.324219 C 99.054688 107.601562 98.734375 107.8125 98.375 107.960938 C 98.011719 108.113281 97.636719 108.1875 97.246094 108.1875 Z M 97.246094 108.1875 " fill-opacity="1" fill-rule="nonzero"/><path fill="rgb(0%, 0%, 0%)" d="M 97.246094 118.722656 L 76.726562 118.722656 C 76.335938 118.722656 75.960938 118.648438 75.601562 118.5 C 75.242188 118.347656 74.921875 118.136719 74.644531 117.859375 C 74.371094 117.585938 74.15625 117.265625 74.007812 116.90625 C 73.859375 116.542969 73.785156 116.167969 73.785156 115.777344 C 73.785156 115.386719 73.859375 115.011719 74.007812 114.648438 C 74.15625 114.289062 74.371094 113.96875 74.644531 113.695312 C 74.921875 113.417969 75.242188 113.207031 75.601562 113.054688 C 75.960938 112.90625 76.335938 112.832031 76.726562 112.832031 L 97.246094 112.832031 C 97.636719 112.832031 98.011719 112.90625 98.375 113.054688 C 98.734375 113.207031 99.054688 113.417969 99.328125 113.695312 C 99.605469 113.96875 99.816406 114.289062 99.96875 114.648438 C 100.117188 115.011719 100.191406 115.386719 100.191406 115.777344 C 100.191406 116.167969 100.117188 116.542969 99.96875 116.90625 C 99.816406 117.265625 99.605469 117.585938 99.328125 117.859375 C 99.054688 118.136719 98.734375 118.347656 98.375 118.5 C 98.011719 118.648438 97.636719 118.722656 97.246094 118.722656 Z M 97.246094 118.722656 " fill-opacity="1" fill-rule="nonzero"/><path fill="rgb(0%, 0%, 0%)" d="M 140.707031 87.113281 L 120.1875 87.113281 C 119.796875 87.113281 119.421875 87.039062 119.0625 86.890625 C 118.703125 86.742188 118.382812 86.527344 118.105469 86.25 C 117.832031 85.976562 117.617188 85.65625 117.46875 85.296875 C 117.320312 84.933594 117.246094 84.558594 117.246094 84.167969 C 117.246094 83.777344 117.320312 83.402344 117.46875 83.042969 C 117.617188 82.679688 117.832031 82.363281 118.105469 82.085938 C 118.382812 81.808594 118.703125 81.597656 119.0625 81.445312 C 119.421875 81.296875 119.796875 81.222656 120.1875 81.222656 L 140.707031 81.222656 C 141.097656 81.222656 141.472656 81.296875 141.835938 81.445312 C 142.195312 81.597656 142.515625 81.808594 142.789062 82.085938 C 143.066406 82.363281 143.277344 82.679688 143.429688 83.042969 C 143.578125 83.402344 143.652344 83.777344 143.652344 84.167969 C 143.652344 84.558594 143.578125 84.933594 143.429688 85.296875 C 143.277344 85.65625 143.066406 85.976562 142.789062 86.25 C 142.515625 86.527344 142.195312 86.742188 141.835938 86.890625 C 141.472656 87.039062 141.097656 87.113281 140.707031 87.113281 Z M 140.707031 87.113281 " fill-opacity="1" fill-rule="nonzero"/><path fill="rgb(0%, 0%, 0%)" d="M 140.707031 97.652344 L 120.1875 97.652344 C 119.796875 97.652344 119.421875 97.574219 119.0625 97.425781 C 118.703125 97.277344 118.382812 97.0625 118.105469 96.789062 C 117.832031 96.511719 117.617188 96.191406 117.46875 95.832031 C 117.320312 95.472656 117.246094 95.09375 117.246094 94.703125 C 117.246094 94.3125 117.320312 93.9375 117.46875 93.578125 C 117.617188 93.214844 117.832031 92.898438 118.105469 92.621094 C 118.382812 92.34375 118.703125 92.132812 119.0625 91.984375 C 119.421875 91.832031 119.796875 91.757812 120.1875 91.757812 L 140.707031 91.757812 C 141.097656 91.757812 141.472656 91.832031 141.835938 91.984375 C 142.195312 92.132812 142.515625 92.34375 142.789062 92.621094 C 143.066406 92.898438 143.277344 93.214844 143.429688 93.578125 C 143.578125 93.9375 143.652344 94.3125 143.652344 94.703125 C 143.652344 95.09375 143.578125 95.472656 143.429688 95.832031 C 143.277344 96.191406 143.066406 96.511719 142.789062 96.789062 C 142.515625 97.0625 142.195312 97.277344 141.835938 97.425781 C 141.472656 97.574219 141.097656 97.652344 140.707031 97.652344 Z M 140.707031 97.652344 " fill-opacity="1" fill-rule="nonzero"/><path fill="rgb(0%, 0%, 0%)" d="M 140.707031 108.1875 L 120.1875 108.1875 C 119.796875 108.1875 119.421875 108.113281 119.0625 107.960938 C 118.703125 107.8125 118.382812 107.601562 118.105469 107.324219 C 117.832031 107.046875 117.617188 106.730469 117.46875 106.367188 C 117.320312 106.007812 117.246094 105.632812 117.246094 105.242188 C 117.246094 104.851562 117.320312 104.476562 117.46875 104.113281 C 117.617188 103.753906 117.832031 103.433594 118.105469 103.15625 C 118.382812 102.882812 118.703125 102.667969 119.0625 102.519531 C 119.421875 102.371094 119.796875 102.296875 120.1875 102.296875 L 140.707031 102.296875 C 141.097656 102.296875 141.472656 102.371094 141.835938 102.519531 C 142.195312 102.667969 142.515625 102.882812 142.789062 103.15625 C 143.066406 103.433594 143.277344 103.753906 143.429688 104.113281 C 143.578125 104.476562 143.652344 104.851562 143.652344 105.242188 C 143.652344 105.632812 143.578125 106.007812 143.429688 106.367188 C 143.277344 106.730469 143.066406 107.046875 142.789062 107.324219 C 142.515625 107.601562 142.195312 107.8125 141.835938 107.960938 C 141.472656 108.113281 141.097656 108.1875 140.707031 108.1875 Z M 140.707031 108.1875 " fill-opacity="1" fill-rule="nonzero"/><path fill="rgb(0%, 0%, 0%)" d="M 140.707031 118.722656 L 120.1875 118.722656 C 119.796875 118.722656 119.421875 118.648438 119.0625 118.5 C 118.703125 118.347656 118.382812 118.136719 118.105469 117.859375 C 117.832031 117.585938 117.617188 117.265625 117.46875 116.90625 C 117.320312 116.542969 117.246094 116.167969 117.246094 115.777344 C 117.246094 115.386719 117.320312 115.011719 117.46875 114.648438 C 117.617188 114.289062 117.832031 113.96875 118.105469 113.695312 C 118.382812 113.417969 118.703125 113.207031 119.0625 113.054688 C 119.421875 112.90625 119.796875 112.832031 120.1875 112.832031 L 140.707031 112.832031 C 141.097656 112.832031 141.472656 112.90625 141.835938 113.054688 C 142.195312 113.207031 142.515625 113.417969 142.789062 113.695312 C 143.066406 113.96875 143.277344 114.289062 143.429688 114.648438 C 143.578125 115.011719 143.652344 115.386719 143.652344 115.777344 C 143.652344 116.167969 143.578125 116.542969 143.429688 116.90625 C 143.277344 117.265625 143.066406 117.585938 142.789062 117.859375 C 142.515625 118.136719 142.195312 118.347656 141.835938 118.5 C 141.472656 118.648438 141.097656 118.722656 140.707031 118.722656 Z M 140.707031 118.722656 " fill-opacity="1" fill-rule="nonzero"/><path fill="rgb(0%, 0%, 0%)" d="M 27.597656 130.003906 L 16.558594 130.003906 C 16.019531 130.003906 15.480469 129.976562 14.945312 129.921875 C 14.410156 129.871094 13.875 129.789062 13.347656 129.683594 C 12.820312 129.578125 12.296875 129.445312 11.78125 129.289062 C 11.265625 129.132812 10.757812 128.953125 10.261719 128.746094 C 9.761719 128.539062 9.273438 128.308594 8.800781 128.050781 C 8.324219 127.796875 7.863281 127.519531 7.414062 127.222656 C 6.964844 126.921875 6.535156 126.601562 6.117188 126.257812 C 5.699219 125.914062 5.300781 125.554688 4.917969 125.171875 C 4.539062 124.789062 4.175781 124.390625 3.835938 123.972656 C 3.492188 123.558594 3.171875 123.125 2.871094 122.675781 C 2.570312 122.226562 2.296875 121.765625 2.039062 121.289062 C 1.785156 120.8125 1.554688 120.328125 1.347656 119.828125 C 1.140625 119.328125 0.960938 118.824219 0.804688 118.304688 C 0.648438 117.789062 0.515625 117.265625 0.410156 116.738281 C 0.304688 116.210938 0.226562 115.675781 0.171875 115.140625 C 0.117188 114.601562 0.0898438 114.0625 0.0898438 113.523438 L 0.0898438 83.039062 C 0.0898438 82.496094 0.117188 81.960938 0.171875 81.421875 C 0.226562 80.886719 0.304688 80.351562 0.410156 79.824219 C 0.515625 79.292969 0.648438 78.773438 0.804688 78.253906 C 0.960938 77.738281 1.140625 77.230469 1.347656 76.734375 C 1.554688 76.234375 1.785156 75.75 2.039062 75.273438 C 2.296875 74.796875 2.570312 74.335938 2.871094 73.886719 C 3.171875 73.4375 3.492188 73.003906 3.835938 72.589844 C 4.175781 72.171875 4.539062 71.773438 4.917969 71.390625 C 5.300781 71.007812 5.699219 70.648438 6.117188 70.304688 C 6.535156 69.960938 6.964844 69.640625 7.414062 69.339844 C 7.863281 69.042969 8.324219 68.765625 8.800781 68.507812 C 9.273438 68.253906 9.761719 68.023438 10.261719 67.816406 C 10.757812 67.609375 11.265625 67.429688 11.78125 67.273438 C 12.296875 67.117188 12.820312 66.984375 13.347656 66.878906 C 13.875 66.773438 14.410156 66.691406 14.945312 66.640625 C 15.480469 66.585938 16.019531 66.558594 16.558594 66.558594 L 30.0625 66.558594 C 30.304688 66.558594 30.542969 66.589844 30.777344 66.648438 C 31.011719 66.707031 31.234375 66.792969 31.449219 66.90625 C 31.660156 67.019531 31.859375 67.15625 32.035156 67.320312 C 32.214844 67.480469 32.375 67.660156 32.507812 67.863281 C 32.640625 68.0625 32.75 68.277344 32.832031 68.503906 C 32.914062 68.730469 32.96875 68.964844 32.992188 69.207031 C 33.015625 69.445312 33.011719 69.6875 32.976562 69.925781 C 32.941406 70.164062 32.878906 70.394531 32.789062 70.621094 C 31.003906 75.007812 29.605469 79.519531 28.597656 84.148438 C 27.585938 88.777344 26.980469 93.460938 26.777344 98.191406 C 26.574219 102.925781 26.777344 107.644531 27.386719 112.34375 C 27.996094 117.042969 29.003906 121.65625 30.410156 126.179688 C 30.476562 126.402344 30.519531 126.625 30.535156 126.855469 C 30.550781 127.085938 30.539062 127.316406 30.5 127.542969 C 30.464844 127.773438 30.398438 127.992188 30.308594 128.203125 C 30.21875 128.417969 30.105469 128.617188 29.96875 128.804688 C 29.832031 128.988281 29.675781 129.15625 29.5 129.304688 C 29.324219 129.453125 29.132812 129.582031 28.925781 129.6875 C 28.71875 129.789062 28.503906 129.867188 28.28125 129.921875 C 28.054688 129.976562 27.828125 130.003906 27.597656 130.003906 Z M 16.558594 72.449219 C 15.863281 72.449219 15.175781 72.519531 14.496094 72.65625 C 13.816406 72.792969 13.152344 72.992188 12.511719 73.257812 C 11.871094 73.527344 11.261719 73.851562 10.683594 74.238281 C 10.105469 74.625 9.574219 75.0625 9.082031 75.554688 C 8.589844 76.046875 8.152344 76.582031 7.765625 77.15625 C 7.378906 77.734375 7.054688 78.34375 6.789062 78.988281 C 6.519531 79.628906 6.320312 80.292969 6.183594 80.972656 C 6.046875 81.652344 5.980469 82.34375 5.980469 83.039062 L 5.980469 113.523438 C 5.980469 114.21875 6.046875 114.90625 6.183594 115.589844 C 6.320312 116.269531 6.519531 116.933594 6.789062 117.574219 C 7.054688 118.214844 7.378906 118.824219 7.765625 119.402344 C 8.152344 119.980469 8.589844 120.515625 9.082031 121.007812 C 9.574219 121.5 10.105469 121.9375 10.683594 122.324219 C 11.261719 122.710938 11.871094 123.035156 12.511719 123.300781 C 13.152344 123.570312 13.816406 123.769531 14.496094 123.90625 C 15.175781 124.042969 15.863281 124.109375 16.558594 124.113281 L 23.691406 124.113281 C 22.582031 119.875 21.796875 115.578125 21.324219 111.222656 C 20.855469 106.867188 20.710938 102.5 20.886719 98.125 C 21.066406 93.746094 21.566406 89.40625 22.390625 85.105469 C 23.210938 80.800781 24.347656 76.582031 25.792969 72.449219 Z M 16.558594 72.449219 " fill-opacity="1" fill-rule="nonzero"/><g clip-path="url(#id1)"><path fill="rgb(0%, 0%, 0%)" d="M 200.960938 130.003906 L 189.921875 130.003906 C 189.691406 130.003906 189.464844 129.976562 189.238281 129.921875 C 189.015625 129.871094 188.800781 129.789062 188.59375 129.6875 C 188.386719 129.582031 188.199219 129.457031 188.019531 129.304688 C 187.84375 129.15625 187.6875 128.988281 187.550781 128.804688 C 187.414062 128.617188 187.300781 128.417969 187.210938 128.207031 C 187.121094 127.992188 187.058594 127.773438 187.019531 127.542969 C 186.980469 127.316406 186.96875 127.085938 186.984375 126.855469 C 187 126.625 187.042969 126.402344 187.113281 126.179688 C 188.515625 121.65625 189.523438 117.042969 190.132812 112.34375 C 190.742188 107.644531 190.945312 102.929688 190.742188 98.195312 C 190.539062 93.460938 189.933594 88.777344 188.925781 84.148438 C 187.914062 79.519531 186.519531 75.007812 184.734375 70.621094 C 184.640625 70.398438 184.578125 70.164062 184.542969 69.925781 C 184.507812 69.6875 184.503906 69.445312 184.527344 69.207031 C 184.554688 68.964844 184.605469 68.734375 184.6875 68.503906 C 184.769531 68.277344 184.878906 68.0625 185.011719 67.863281 C 185.148438 67.664062 185.304688 67.480469 185.484375 67.320312 C 185.664062 67.15625 185.859375 67.019531 186.074219 66.90625 C 186.285156 66.792969 186.507812 66.707031 186.742188 66.648438 C 186.976562 66.589844 187.214844 66.558594 187.457031 66.558594 L 200.960938 66.558594 C 201.5 66.558594 202.039062 66.585938 202.574219 66.640625 C 203.113281 66.695312 203.644531 66.773438 204.171875 66.878906 C 204.703125 66.984375 205.222656 67.117188 205.738281 67.273438 C 206.257812 67.429688 206.761719 67.613281 207.261719 67.820312 C 207.757812 68.027344 208.246094 68.257812 208.722656 68.511719 C 209.195312 68.765625 209.660156 69.042969 210.105469 69.34375 C 210.554688 69.640625 210.988281 69.964844 211.40625 70.304688 C 211.820312 70.648438 212.21875 71.011719 212.601562 71.390625 C 212.984375 71.773438 213.34375 72.171875 213.6875 72.589844 C 214.027344 73.007812 214.347656 73.4375 214.648438 73.886719 C 214.949219 74.335938 215.226562 74.796875 215.480469 75.273438 C 215.734375 75.75 215.964844 76.238281 216.171875 76.734375 C 216.378906 77.234375 216.558594 77.742188 216.71875 78.257812 C 216.875 78.773438 217.003906 79.296875 217.109375 79.824219 C 217.214844 80.355469 217.296875 80.886719 217.347656 81.421875 C 217.402344 81.960938 217.429688 82.5 217.429688 83.039062 L 217.429688 113.527344 C 217.429688 114.066406 217.402344 114.601562 217.347656 115.140625 C 217.296875 115.675781 217.214844 116.210938 217.109375 116.738281 C 217.003906 117.269531 216.875 117.789062 216.71875 118.308594 C 216.558594 118.824219 216.378906 119.332031 216.171875 119.828125 C 215.964844 120.328125 215.734375 120.8125 215.480469 121.289062 C 215.226562 121.765625 214.949219 122.226562 214.648438 122.675781 C 214.347656 123.125 214.027344 123.558594 213.6875 123.972656 C 213.34375 124.390625 212.984375 124.789062 212.601562 125.171875 C 212.21875 125.554688 211.820312 125.914062 211.402344 126.257812 C 210.988281 126.601562 210.554688 126.921875 210.105469 127.222656 C 209.660156 127.519531 209.195312 127.796875 208.722656 128.050781 C 208.246094 128.308594 207.757812 128.539062 207.261719 128.746094 C 206.761719 128.953125 206.257812 129.132812 205.738281 129.289062 C 205.222656 129.445312 204.703125 129.578125 204.171875 129.683594 C 203.644531 129.789062 203.113281 129.871094 202.574219 129.921875 C 202.039062 129.976562 201.5 130.003906 200.960938 130.003906 Z M 193.828125 124.113281 L 200.960938 124.113281 C 201.65625 124.109375 202.34375 124.042969 203.023438 123.90625 C 203.707031 123.769531 204.367188 123.570312 205.007812 123.304688 C 205.648438 123.035156 206.257812 122.710938 206.835938 122.324219 C 207.414062 121.9375 207.949219 121.5 208.441406 121.007812 C 208.929688 120.515625 209.371094 119.980469 209.753906 119.402344 C 210.140625 118.824219 210.46875 118.214844 210.734375 117.574219 C 211 116.933594 211.199219 116.269531 211.335938 115.589844 C 211.472656 114.90625 211.542969 114.21875 211.542969 113.523438 L 211.542969 83.039062 C 211.542969 82.34375 211.472656 81.652344 211.335938 80.972656 C 211.199219 80.292969 211 79.628906 210.734375 78.988281 C 210.46875 78.347656 210.140625 77.734375 209.753906 77.160156 C 209.371094 76.582031 208.929688 76.046875 208.441406 75.554688 C 207.949219 75.0625 207.414062 74.625 206.835938 74.238281 C 206.257812 73.851562 205.648438 73.527344 205.007812 73.257812 C 204.367188 72.992188 203.707031 72.792969 203.023438 72.65625 C 202.34375 72.519531 201.65625 72.453125 200.960938 72.449219 L 191.726562 72.449219 C 193.175781 76.585938 194.3125 80.800781 195.132812 85.105469 C 195.957031 89.40625 196.457031 93.746094 196.632812 98.125 C 196.8125 102.5 196.664062 106.867188 196.195312 111.222656 C 195.726562 115.578125 194.9375 119.875 193.832031 124.113281 Z M 193.828125 124.113281 " fill-opacity="1" fill-rule="nonzero"/></g><path fill="rgb(0%, 0%, 0%)" d="M 189.792969 67.453125 C 188.816406 65.136719 187.742188 62.863281 186.570312 60.636719 C 185.398438 58.414062 184.132812 56.242188 182.773438 54.121094 C 181.417969 52.003906 179.972656 49.949219 178.4375 47.957031 C 176.902344 45.964844 175.285156 44.039062 173.585938 42.183594 C 171.886719 40.328125 170.113281 38.550781 168.261719 36.847656 C 166.40625 35.148438 164.488281 33.527344 162.496094 31.988281 C 160.507812 30.453125 158.453125 29.003906 156.339844 27.640625 C 154.222656 26.28125 152.054688 25.011719 149.832031 23.835938 C 147.609375 22.664062 145.339844 21.585938 143.023438 20.605469 C 140.707031 19.625 138.351562 18.746094 135.960938 17.96875 C 133.570312 17.1875 131.148438 16.515625 128.699219 15.945312 C 126.253906 15.375 123.78125 14.910156 121.292969 14.550781 C 118.804688 14.191406 116.304688 13.941406 113.796875 13.796875 C 111.285156 13.652344 108.773438 13.617188 106.257812 13.6875 C 103.746094 13.757812 101.242188 13.9375 98.742188 14.226562 C 96.242188 14.511719 93.761719 14.90625 91.296875 15.40625 C 88.832031 15.902344 86.394531 16.507812 83.984375 17.21875 C 81.570312 17.925781 79.191406 18.738281 76.847656 19.648438 C 74.507812 20.5625 72.207031 21.574219 69.949219 22.683594 C 67.691406 23.796875 65.488281 25 63.335938 26.300781 C 61.183594 27.597656 59.089844 28.988281 57.054688 30.46875 C 55.019531 31.949219 53.054688 33.511719 51.152344 35.160156 C 49.253906 36.808594 47.425781 38.535156 45.675781 40.339844 C 43.921875 42.144531 42.253906 44.019531 40.660156 45.96875 C 39.070312 47.917969 37.566406 49.929688 36.144531 52.007812 C 34.726562 54.085938 33.402344 56.21875 32.164062 58.410156 C 30.929688 60.601562 29.789062 62.839844 28.746094 65.128906 C 27.703125 67.417969 26.757812 69.75 25.914062 72.121094 C 25.070312 74.488281 24.332031 76.890625 23.691406 79.324219 C 23.054688 81.757812 22.523438 84.214844 22.09375 86.695312 C 21.667969 89.175781 21.347656 91.667969 21.132812 94.175781 C 20.917969 96.683594 20.8125 99.195312 20.816406 101.710938 C 20.816406 102.101562 20.890625 102.476562 21.039062 102.835938 C 21.1875 103.199219 21.402344 103.515625 21.675781 103.792969 C 21.953125 104.070312 22.269531 104.28125 22.632812 104.429688 C 22.992188 104.582031 23.367188 104.65625 23.757812 104.65625 C 24.148438 104.65625 24.523438 104.582031 24.886719 104.429688 C 25.246094 104.28125 25.5625 104.070312 25.839844 103.792969 C 26.117188 103.515625 26.328125 103.199219 26.480469 102.835938 C 26.628906 102.476562 26.703125 102.101562 26.703125 101.710938 C 26.703125 99.191406 26.820312 96.679688 27.054688 94.171875 C 27.285156 91.667969 27.632812 89.175781 28.09375 86.703125 C 28.554688 84.226562 29.128906 81.78125 29.816406 79.359375 C 30.503906 76.9375 31.300781 74.550781 32.203125 72.203125 C 33.109375 69.855469 34.121094 67.550781 35.238281 65.296875 C 36.355469 63.042969 37.574219 60.84375 38.894531 58.699219 C 40.214844 56.554688 41.628906 54.476562 43.140625 52.464844 C 44.652344 50.453125 46.25 48.511719 47.9375 46.648438 C 49.628906 44.78125 51.398438 42.996094 53.253906 41.292969 C 55.105469 39.59375 57.03125 37.976562 59.035156 36.453125 C 61.035156 34.925781 63.101562 33.496094 65.234375 32.164062 C 67.367188 30.828125 69.558594 29.59375 71.804688 28.460938 C 74.050781 27.328125 76.34375 26.296875 78.683594 25.375 C 81.023438 24.453125 83.402344 23.640625 85.816406 22.9375 C 88.234375 22.234375 90.675781 21.644531 93.144531 21.164062 C 95.617188 20.6875 98.101562 20.320312 100.605469 20.070312 C 103.109375 19.824219 105.617188 19.6875 108.132812 19.667969 C 110.648438 19.652344 113.160156 19.746094 115.667969 19.960938 C 118.175781 20.171875 120.667969 20.5 123.144531 20.941406 C 125.621094 21.382812 128.070312 21.9375 130.496094 22.605469 C 132.921875 23.273438 135.3125 24.050781 137.667969 24.9375 C 140.019531 25.824219 142.328125 26.820312 144.589844 27.917969 C 146.855469 29.019531 149.0625 30.21875 151.214844 31.523438 C 153.367188 32.828125 155.453125 34.226562 157.480469 35.722656 C 159.503906 37.214844 161.453125 38.800781 163.332031 40.476562 C 165.210938 42.152344 167.007812 43.910156 168.722656 45.75 C 170.4375 47.589844 172.066406 49.503906 173.609375 51.496094 C 175.148438 53.484375 176.59375 55.542969 177.945312 57.664062 C 179.296875 59.789062 180.546875 61.96875 181.699219 64.207031 C 182.847656 66.445312 183.894531 68.734375 184.835938 71.066406 C 185.777344 73.402344 186.605469 75.777344 187.328125 78.1875 C 188.050781 80.597656 188.660156 83.039062 189.160156 85.503906 C 189.65625 87.972656 190.042969 90.457031 190.3125 92.960938 C 190.582031 95.464844 190.734375 97.972656 190.773438 100.492188 C 190.8125 103.007812 190.738281 105.519531 190.542969 108.03125 C 190.351562 110.539062 190.046875 113.035156 189.625 115.519531 C 189.203125 118 188.667969 120.457031 188.019531 122.890625 C 187.371094 125.320312 186.613281 127.71875 185.746094 130.082031 C 184.878906 132.445312 183.902344 134.761719 182.824219 137.035156 C 181.742188 139.308594 180.558594 141.527344 179.273438 143.691406 C 177.988281 145.855469 176.609375 147.957031 175.128906 149.992188 C 173.652344 152.03125 172.082031 153.996094 170.425781 155.886719 C 168.765625 157.78125 167.023438 159.589844 165.199219 161.324219 C 163.371094 163.054688 161.472656 164.699219 159.496094 166.257812 C 157.519531 167.816406 155.472656 169.277344 153.363281 170.648438 C 151.253906 172.015625 149.082031 173.285156 146.855469 174.457031 C 144.628906 175.625 142.351562 176.6875 140.023438 177.648438 C 137.699219 178.609375 135.335938 179.460938 132.929688 180.203125 C 133.769531 181.507812 134.1875 182.9375 134.1875 184.492188 L 134.1875 185.195312 C 134.1875 185.460938 134.171875 185.726562 134.144531 185.988281 C 135.617188 185.542969 137.078125 185.0625 138.523438 184.539062 C 139.96875 184.019531 141.402344 183.457031 142.820312 182.863281 C 144.234375 182.265625 145.636719 181.632812 147.019531 180.960938 C 148.402344 180.292969 149.769531 179.585938 151.117188 178.84375 C 152.464844 178.101562 153.789062 177.324219 155.097656 176.515625 C 156.402344 175.703125 157.6875 174.859375 158.949219 173.980469 C 160.210938 173.101562 161.449219 172.191406 162.664062 171.246094 C 163.878906 170.304688 165.066406 169.328125 166.230469 168.324219 C 167.394531 167.316406 168.527344 166.28125 169.636719 165.214844 C 170.746094 164.152344 171.828125 163.058594 172.878906 161.9375 C 173.929688 160.8125 174.953125 159.664062 175.945312 158.488281 C 176.9375 157.3125 177.898438 156.113281 178.824219 154.886719 C 179.753906 153.660156 180.648438 152.410156 181.511719 151.140625 C 182.378906 149.867188 183.207031 148.570312 184.003906 147.253906 C 184.796875 145.9375 185.558594 144.601562 186.285156 143.246094 C 187.007812 141.890625 187.699219 140.515625 188.351562 139.125 C 189.007812 137.730469 189.625 136.324219 190.203125 134.898438 C 190.78125 133.472656 191.324219 132.035156 191.828125 130.582031 C 192.335938 129.128906 192.800781 127.664062 193.230469 126.183594 C 193.65625 124.707031 194.046875 123.21875 194.394531 121.722656 C 194.746094 120.222656 195.054688 118.71875 195.328125 117.203125 C 195.597656 115.6875 195.828125 114.167969 196.019531 112.640625 C 196.210938 111.117188 196.363281 109.585938 196.476562 108.050781 C 196.585938 106.515625 196.65625 104.980469 196.6875 103.441406 C 196.71875 101.90625 196.710938 100.367188 196.660156 98.828125 C 196.609375 97.292969 196.519531 95.757812 196.390625 94.222656 C 196.261719 92.691406 196.089844 91.160156 195.882812 89.636719 C 195.671875 88.113281 195.421875 86.597656 195.132812 85.085938 C 194.84375 83.574219 194.515625 82.074219 194.144531 80.578125 C 193.777344 79.085938 193.371094 77.601562 192.925781 76.128906 C 192.480469 74.65625 191.996094 73.199219 191.472656 71.75 C 190.949219 70.304688 190.390625 68.871094 189.792969 67.453125 Z M 189.792969 67.453125 " fill-opacity="1" fill-rule="nonzero"/><g clip-path="url(#id2)"><path fill="rgb(0%, 0%, 0%)" d="M 126.234375 196.097656 L 89.101562 196.097656 C 88.386719 196.097656 87.679688 196.027344 86.976562 195.886719 C 86.277344 195.746094 85.59375 195.539062 84.933594 195.261719 C 84.273438 194.988281 83.644531 194.652344 83.050781 194.253906 C 82.457031 193.859375 81.90625 193.40625 81.402344 192.898438 C 80.894531 192.394531 80.445312 191.84375 80.046875 191.25 C 79.648438 190.652344 79.3125 190.027344 79.039062 189.363281 C 78.765625 188.703125 78.558594 188.023438 78.417969 187.320312 C 78.277344 186.617188 78.207031 185.910156 78.207031 185.195312 L 78.207031 184.492188 C 78.207031 183.773438 78.277344 183.066406 78.417969 182.363281 C 78.558594 181.664062 78.765625 180.980469 79.039062 180.320312 C 79.3125 179.660156 79.648438 179.03125 80.046875 178.4375 C 80.445312 177.839844 80.894531 177.289062 81.402344 176.785156 C 81.90625 176.277344 82.457031 175.828125 83.050781 175.429688 C 83.644531 175.03125 84.273438 174.695312 84.933594 174.421875 C 85.59375 174.148438 86.277344 173.941406 86.976562 173.800781 C 87.679688 173.660156 88.386719 173.589844 89.101562 173.585938 L 126.234375 173.585938 C 126.949219 173.589844 127.65625 173.660156 128.359375 173.800781 C 129.058594 173.941406 129.742188 174.148438 130.402344 174.421875 C 131.0625 174.695312 131.691406 175.03125 132.285156 175.429688 C 132.878906 175.828125 133.429688 176.277344 133.933594 176.785156 C 134.441406 177.289062 134.890625 177.839844 135.289062 178.4375 C 135.6875 179.03125 136.023438 179.660156 136.296875 180.320312 C 136.570312 180.980469 136.777344 181.664062 136.917969 182.363281 C 137.058594 183.066406 137.128906 183.773438 137.128906 184.492188 L 137.128906 185.195312 C 137.128906 185.910156 137.058594 186.617188 136.917969 187.320312 C 136.777344 188.023438 136.570312 188.703125 136.296875 189.363281 C 136.023438 190.027344 135.6875 190.652344 135.289062 191.25 C 134.890625 191.84375 134.441406 192.394531 133.933594 192.898438 C 133.429688 193.40625 132.878906 193.859375 132.285156 194.253906 C 131.691406 194.652344 131.0625 194.988281 130.402344 195.261719 C 129.742188 195.539062 129.058594 195.746094 128.359375 195.886719 C 127.65625 196.027344 126.949219 196.097656 126.234375 196.097656 Z M 89.101562 179.480469 C 88.773438 179.480469 88.449219 179.511719 88.125 179.578125 C 87.804688 179.640625 87.492188 179.734375 87.1875 179.863281 C 86.882812 179.988281 86.59375 180.144531 86.320312 180.324219 C 86.046875 180.507812 85.796875 180.714844 85.5625 180.949219 C 85.332031 181.179688 85.121094 181.433594 84.941406 181.707031 C 84.757812 181.980469 84.601562 182.269531 84.476562 182.574219 C 84.351562 182.878906 84.257812 183.191406 84.191406 183.511719 C 84.128906 183.835938 84.09375 184.160156 84.09375 184.492188 L 84.09375 185.195312 C 84.09375 185.523438 84.128906 185.847656 84.191406 186.171875 C 84.257812 186.492188 84.351562 186.808594 84.476562 187.109375 C 84.601562 187.414062 84.757812 187.703125 84.941406 187.976562 C 85.121094 188.25 85.332031 188.503906 85.5625 188.734375 C 85.796875 188.96875 86.046875 189.175781 86.320312 189.359375 C 86.59375 189.542969 86.882812 189.695312 87.1875 189.820312 C 87.492188 189.949219 87.804688 190.042969 88.125 190.109375 C 88.449219 190.171875 88.773438 190.203125 89.101562 190.203125 L 126.234375 190.203125 C 126.5625 190.203125 126.886719 190.171875 127.210938 190.109375 C 127.53125 190.042969 127.847656 189.949219 128.148438 189.820312 C 128.453125 189.695312 128.742188 189.542969 129.015625 189.359375 C 129.289062 189.175781 129.539062 188.96875 129.773438 188.734375 C 130.003906 188.503906 130.214844 188.25 130.394531 187.976562 C 130.578125 187.703125 130.734375 187.414062 130.859375 187.109375 C 130.984375 186.808594 131.082031 186.492188 131.144531 186.171875 C 131.210938 185.847656 131.242188 185.523438 131.242188 185.195312 L 131.242188 184.492188 C 131.242188 184.160156 131.210938 183.835938 131.144531 183.511719 C 131.082031 183.191406 130.984375 182.878906 130.859375 182.574219 C 130.734375 182.269531 130.578125 181.980469 130.394531 181.707031 C 130.214844 181.433594 130.003906 181.179688 129.773438 180.949219 C 129.539062 180.714844 129.289062 180.507812 129.015625 180.324219 C 128.742188 180.144531 128.453125 179.988281 128.148438 179.863281 C 127.847656 179.734375 127.53125 179.640625 127.210938 179.578125 C 126.886719 179.511719 126.5625 179.480469 126.234375 179.480469 Z M 89.101562 179.480469 " fill-opacity="1" fill-rule="nonzero"/></g></svg>