<svg xmlns="http://www.w3.org/2000/svg" xmlns:xlink="http://www.w3.org/1999/xlink" width="200" zoomAndPan="magnify" viewBox="0 0 150 149.999998" height="200" preserveAspectRatio="xMidYMid meet" version="1.0"><defs><clipPath id="id1"><path d="M 23.421875 0.0273438 L 136.671875 0.0273438 L 136.671875 149.976562 L 23.421875 149.976562 Z M 23.421875 0.0273438 " clip-rule="nonzero"/></clipPath></defs><g clip-path="url(#id1)"><path fill="#ffffff" d="M 65.988281 123.886719 C 67.148438 125.867188 68.367188 127.722656 69.71875 129.34375 C 72.539062 132.734375 75.320312 136.296875 79.367188 138.171875 C 76.964844 135.03125 75.089844 131.367188 73.761719 127.171875 C 72.308594 126.605469 71.296875 125.699219 70.097656 124.792969 C 67.316406 122.644531 64.933594 120.09375 62.699219 117.753906 C 63.523438 119.839844 64.785156 121.863281 65.988281 123.886719 Z M 83.941406 113.265625 C 83.414062 113.371094 82.992188 113.558594 82.445312 113.644531 C 82.484375 114.296875 83.351562 114.59375 83.941406 114.910156 C 84.761719 115.351562 85.476562 115.921875 86.554688 115.878906 C 85.710938 114.972656 84.742188 114.195312 83.941406 113.265625 Z M 85.648438 112.59375 C 86.363281 113.667969 87.269531 114.550781 88.28125 115.351562 C 88.785156 115.183594 89.292969 114.992188 89.925781 114.910156 C 88.996094 113.980469 87.984375 113.140625 87.289062 112 C 86.722656 112.148438 86.214844 112.402344 85.648438 112.59375 Z M 71.59375 113.855469 C 71.507812 114.128906 71.171875 114.152344 71.003906 114.320312 C 71.382812 114.53125 71.507812 114.992188 71.886719 115.203125 C 71.910156 114.296875 72.140625 113.582031 72.332031 112.824219 C 71.78125 112.316406 70.9375 111.664062 70.390625 111.390625 C 70.898438 112.128906 71.632812 112.59375 71.59375 113.855469 Z M 69.421875 121.421875 C 70.285156 122.285156 71.128906 123.230469 72.035156 123.96875 C 72.332031 124.203125 72.730469 124.558594 72.941406 124.476562 C 72.773438 123.78125 72.5625 123.128906 72.5 122.324219 C 67.671875 118.933594 63.835938 114.570312 60.382812 109.832031 C 62.40625 114.53125 66.050781 118.050781 69.421875 121.421875 Z M 59.621094 106.164062 C 63.332031 110.253906 67.019531 114.847656 71.066406 118.492188 C 71.296875 118.703125 71.550781 119.101562 71.886719 119.019531 C 71.761719 118.492188 71.742188 117.839844 71.742188 117.164062 C 69.042969 115.4375 66.976562 112.96875 64.933594 110.570312 C 62.867188 108.144531 61.054688 105.449219 59.476562 102.5625 C 59.476562 102.519531 59.453125 102.476562 59.390625 102.5 C 59.371094 103.828125 59.519531 104.964844 59.621094 106.164062 Z M 97.910156 111.855469 C 96.625 108.714844 95.023438 105.871094 93.65625 102.941406 C 90.914062 97.0625 87.3125 91.730469 82.886719 87.390625 C 82.886719 87.304688 82.78125 87.328125 82.800781 87.453125 C 83.390625 90.296875 84.550781 92.382812 85.941406 94.492188 C 88.34375 98.074219 90.597656 102.265625 92.539062 106.078125 C 95.253906 111.515625 98.480469 116.449219 101.132812 121.714844 C 100.375 118.195312 99.195312 114.972656 97.910156 111.855469 Z M 110.109375 88.128906 C 110.679688 90.824219 111.289062 93.921875 111.3125 96.746094 C 114.007812 99.042969 116.496094 101.445312 118.496094 104.519531 C 120.476562 107.578125 121.636719 111.265625 122.816406 115.203125 C 122.859375 114.363281 123.449219 114.066406 123.574219 113.414062 C 123.785156 112.234375 123.511719 110.421875 123.34375 109.074219 C 123.175781 107.578125 123.046875 106.226562 122.902344 104.964844 C 122.5625 102.078125 121.785156 99.800781 121.027344 97.632812 C 120.246094 95.375 119.214844 93.164062 118.035156 91.4375 C 117.085938 90.003906 115.949219 88.824219 114.980469 87.621094 C 114.621094 87.199219 114.410156 86.507812 114.007812 86.570312 C 114.683594 89.140625 115.210938 91.667969 115.652344 94.636719 C 115.738281 95.269531 116.179688 97.167969 115.417969 97.25 C 114.640625 97.355469 114.367188 95.398438 114.15625 94.492188 C 113.523438 92.027344 113.144531 90.296875 112.722656 87.832031 C 112.574219 86.925781 112.429688 85.113281 112.132812 84.398438 C 111.667969 83.300781 108.992188 81.679688 108.382812 80.878906 C 109.054688 83.089844 109.5625 85.578125 110.109375 88.128906 Z M 105.539062 85.597656 C 106.109375 88.234375 107.203125 91.605469 106.378906 93.964844 C 107.265625 94.324219 108.023438 94.804688 108.910156 95.164062 C 108.425781 89.773438 107.625 84.691406 106.675781 79.761719 C 105.75 79.363281 104.96875 78.816406 103.894531 78.5625 C 104.652344 80.648438 104.988281 82.988281 105.539062 85.597656 Z M 88.429688 61.429688 C 89.1875 61.535156 89.945312 62.0625 90.746094 61.894531 C 90.578125 61.683594 90.453125 61.429688 90.367188 61.136719 C 88.957031 61.957031 88.132812 60.355469 87.605469 59.871094 C 87.921875 60.335938 88.132812 60.925781 88.429688 61.429688 Z M 80.949219 55.234375 C 81.875 56.667969 82.65625 58.25 84.148438 59.113281 C 83.328125 57.46875 82.234375 56.097656 81.390625 54.476562 C 81.367188 54.855469 81.011719 54.898438 80.949219 55.234375 Z M 65.230469 79.085938 C 67.546875 76.371094 69.296875 72.449219 68.894531 67.792969 C 68.535156 63.472656 66.640625 60.144531 64.195312 57.46875 C 61.878906 54.941406 57.980469 52.726562 53.785156 52.75 C 50.5 52.792969 47.929688 53.589844 45.570312 54.707031 C 46.433594 59.40625 47.527344 63.957031 49.003906 68.234375 C 50.265625 71.859375 51.425781 75.863281 52.816406 79.320312 C 52.988281 79.742188 53.113281 80.625 53.871094 80.4375 C 52.734375 77.148438 51.382812 73.609375 50.5 69.816406 C 49.847656 67.054688 48.941406 64.085938 48.5625 61.21875 C 48.414062 60.144531 48.140625 58.902344 48.5625 58.058594 C 50.375 63.558594 51.867188 69.183594 54.019531 74.15625 C 54.882812 76.160156 55.976562 78.054688 56.484375 80.289062 C 57.515625 80.164062 58.378906 79.890625 59.246094 79.613281 C 59.035156 79.109375 58.65625 78.6875 58.421875 78.183594 C 56.0625 73.148438 54.105469 66.886719 53.113281 60.691406 C 52.988281 59.808594 52.628906 58.648438 53.050781 57.914062 C 53.914062 59.472656 54.3125 61.199219 54.839844 62.863281 C 55.367188 64.546875 55.9375 66.277344 56.566406 67.941406 C 57.769531 71.207031 59.539062 74.09375 60.886719 77.148438 C 61.078125 77.550781 61.183594 77.972656 61.265625 78.414062 C 62.128906 77.972656 62.804688 77.359375 63.375 76.625 C 60.992188 72.660156 58.613281 67.332031 57.6875 61.957031 C 57.558594 61.285156 57.179688 60.101562 57.980469 59.640625 C 58.507812 60.101562 58.613281 60.882812 58.800781 61.515625 C 60.339844 66.359375 62.40625 70.699219 64.871094 74.515625 C 65.480469 73.019531 65.964844 71.945312 66.050781 70.195312 C 66.304688 65.855469 64.027344 62.589844 61.941406 60.460938 C 60.445312 58.921875 58.128906 57.257812 55.136719 56.878906 C 54.777344 56.835938 52.585938 57.027344 52.585938 56.058594 C 52.605469 55.089844 54.230469 55.425781 55.21875 55.59375 C 58.589844 56.203125 60.847656 57.46875 62.761719 59.113281 C 65.25 61.242188 67.398438 64.71875 67.628906 68.996094 C 67.90625 73.902344 66.238281 77.359375 63.734375 79.679688 C 61.582031 81.679688 58.484375 83.113281 54.398438 82.671875 C 54.398438 83.113281 54.714844 83.257812 54.757812 83.640625 C 59.707031 83.828125 62.933594 81.785156 65.230469 79.085938 Z M 74.140625 45.945312 C 74.164062 53.167969 77.847656 59.28125 82.210938 62.105469 C 78.417969 58.878906 76.121094 52.09375 77.34375 45.121094 C 77.367188 44.824219 77.722656 44.847656 77.808594 44.617188 C 78.230469 42.867188 77.621094 42.277344 76.902344 41.308594 C 76.503906 40.78125 76.058594 40.253906 75.636719 39.980469 C 74.519531 41.414062 74.121094 43.5625 74.140625 45.945312 Z M 43.988281 22.382812 C 44.007812 23.121094 43.863281 23.648438 43.839844 24.34375 C 46.539062 23.984375 48.371094 22.785156 50.203125 21.5625 C 49.53125 21.246094 49.003906 20.761719 48.265625 20.53125 C 48.140625 22.679688 45.402344 24.554688 43.988281 22.382812 Z M 45.78125 21.5625 C 47.003906 20.363281 45.695312 18.929688 45.421875 17.6875 C 45.105469 17.6875 44.808594 17.6875 44.515625 17.6875 C 44.875 19.054688 45.042969 20.59375 45.78125 21.5625 Z M 23.421875 12.230469 C 23.507812 12.230469 23.570312 12.230469 23.65625 12.230469 C 27.003906 17.476562 29.386719 23.398438 32.546875 29.042969 C 33.347656 30.476562 33.894531 31.824219 34.339844 33.679688 C 34.464844 34.183594 34.78125 34.816406 34.277344 35.261719 C 33.03125 35.21875 32.738281 33.785156 32.316406 32.941406 C 30.945312 30.140625 29.890625 27 28.585938 24.113281 C 26.816406 20.214844 25.171875 16.210938 23.507812 12.441406 C 23.464844 12.375 23.421875 12.332031 23.421875 12.230469 Z M 112.660156 62.191406 C 112.765625 62.167969 112.785156 62.253906 112.871094 62.253906 C 115.105469 66.023438 117.359375 69.773438 119.464844 73.695312 C 121.53125 77.550781 123.808594 81.386719 125.746094 85.449219 C 127.640625 89.453125 129.726562 93.5 131.730469 97.484375 C 132.679688 99.378906 133.5625 101.402344 134.722656 103.550781 C 135.101562 104.269531 135.734375 105.214844 136.21875 106.542969 C 136.46875 107.238281 137.230469 109.433594 135.988281 109.746094 C 134.742188 110.0625 133.941406 108.484375 133.4375 107.808594 C 132.71875 106.816406 132.339844 105.976562 131.875 104.964844 C 129.054688 98.914062 126.460938 92.765625 123.808594 86.570312 C 122.015625 82.417969 119.992188 78.476562 118.179688 74.515625 C 117.273438 72.515625 116.410156 70.449219 115.417969 68.46875 C 114.410156 66.445312 113.25 64.570312 112.574219 62.398438 C 112.554688 62.292969 112.640625 62.273438 112.660156 62.191406 Z M 88.933594 69.4375 C 88.933594 69.375 88.976562 69.375 89.019531 69.355469 C 89.082031 69.355469 89.101562 69.289062 89.164062 69.289062 C 89.230469 69.308594 89.25 69.355469 89.3125 69.355469 C 90.894531 72.914062 92.769531 76.644531 93.800781 80.964844 C 94.011719 81.847656 94.8125 85.09375 93.800781 85.21875 C 93.148438 85.304688 92.894531 84.039062 92.75 83.640625 C 92.117188 81.722656 91.863281 79.382812 91.273438 77.359375 C 90.871094 76.03125 90.386719 74.8125 89.988281 73.484375 C 89.609375 72.21875 88.976562 70.640625 88.933594 69.4375 Z M 87.902344 81.933594 C 86.953125 81.574219 86.828125 80.351562 86.554688 79.46875 C 85.710938 76.664062 84.847656 73.335938 84.296875 70.257812 C 85.160156 69.417969 85.960938 71.605469 86.257812 72.429688 C 87.015625 74.601562 87.332031 76.558594 87.816406 78.792969 C 88.050781 79.867188 88.617188 81.132812 87.902344 81.933594 Z M 123.574219 70.34375 C 123.597656 70.238281 123.699219 70.21875 123.722656 70.113281 C 123.847656 70.089844 123.847656 70.175781 123.953125 70.195312 C 126.460938 73.800781 128.589844 77.824219 131.054688 81.699219 C 132.867188 84.566406 134.34375 87.535156 135.542969 91.207031 C 135.753906 91.835938 136.660156 94.34375 135.542969 94.636719 C 134.363281 94.953125 133.730469 92.785156 133.4375 92.171875 C 131.078125 87.09375 128.253906 82.25 126.039062 77.003906 C 125.617188 76.011719 125.238281 74.851562 124.773438 73.695312 C 124.335938 72.660156 123.617188 71.4375 123.574219 70.34375 Z M 41.082031 94.785156 C 41.207031 94.765625 41.207031 94.871094 41.292969 94.871094 C 45.988281 102.835938 50.308594 111.136719 55.21875 119.25 C 57.601562 123.210938 59.8125 127.339844 62.320312 131.28125 C 64.070312 134.0625 65.964844 137.222656 67.695312 140.257812 C 68.285156 141.289062 69.019531 142.28125 69.421875 143.25 C 69.757812 144.070312 70.621094 146.433594 69.273438 146.851562 C 68.117188 147.191406 67.082031 145.566406 66.578125 144.683594 C 65.882812 143.460938 65.480469 142.261719 65.019531 141.25 C 63.902344 138.886719 62.699219 136.675781 61.5625 134.652344 C 54.398438 121.839844 47.804688 108.25 41.144531 95.019531 C 41.101562 94.953125 41.082031 94.890625 41.082031 94.785156 Z M 117.886719 128.078125 C 118.917969 130.417969 120.265625 133.453125 120.203125 136.824219 C 120.183594 137.878906 119.929688 140.363281 118.855469 140.40625 C 117.652344 140.46875 117.191406 138.171875 116.769531 137.265625 C 115.882812 135.410156 114.515625 133.769531 113.019531 132.421875 C 114.957031 135.582031 116.285156 138.929688 118.328125 142.28125 C 118.75 142.957031 120.476562 144.640625 119.910156 145.566406 C 119.277344 146.621094 115.503906 145.0625 114.980469 144.832031 C 112.007812 143.523438 109.773438 141.269531 108.234375 138.550781 C 107.433594 137.140625 107.054688 135.410156 105.707031 134.441406 C 105.453125 136.632812 105.789062 138.464844 106.210938 140.195312 C 106.632812 141.902344 107.433594 143.441406 107.558594 145.125 C 106.695312 145.019531 106.316406 143.96875 105.917969 143.101562 C 104.988281 141.078125 103.472656 137.308594 103.980469 134.210938 C 104.105469 133.472656 104.757812 132.589844 105.539062 132.566406 C 106.484375 132.546875 107.371094 133.535156 107.792969 134.125 C 108.402344 135.03125 108.761719 136.066406 109.207031 136.972656 C 110.953125 140.425781 113.648438 143.335938 117.886719 144.453125 C 116.558594 142.21875 115.546875 139.625 114.15625 137.265625 C 113.460938 136.148438 112.851562 134.863281 112.132812 133.769531 C 111.417969 132.671875 110.257812 131.617188 110.40625 130.164062 C 111.375 129.511719 112.511719 130.269531 113.25 130.777344 C 115.570312 132.335938 117.464844 134.820312 118.644531 137.433594 C 118.515625 133.789062 117.652344 130.332031 115.652344 127.46875 C 114.429688 125.738281 112.574219 124.054688 111.015625 122.324219 C 110.40625 121.652344 109.183594 119.691406 110.699219 119.398438 C 111.523438 119.25 112.535156 120.113281 112.957031 120.515625 C 114.703125 122.222656 115.988281 124.832031 117.589844 126.648438 C 117.632812 120.324219 113.714844 118.492188 109.289062 116.636719 C 108.613281 116.34375 107.835938 116.238281 107.265625 115.878906 C 106.339844 115.289062 104.96875 113.582031 105.179688 112.359375 C 105.222656 112.253906 105.285156 112.191406 105.390625 112.148438 C 105.453125 112.148438 105.496094 112.148438 105.539062 112.148438 C 106.296875 112.824219 106.929688 114.171875 108.023438 114.761719 C 109.160156 115.394531 110.699219 115.691406 112.050781 116.175781 C 113.25 116.617188 114.578125 117.375 115.570312 118.132812 C 117.191406 119.375 118.835938 122.789062 118.855469 125.675781 C 118.875 126.6875 118.792969 127.828125 117.886719 128.078125 Z M 108.53125 121.421875 C 110.785156 120.808594 110.679688 123.992188 108.992188 124.035156 C 107.476562 124.074219 107.074219 121.820312 108.53125 121.421875 Z M 89.3125 121.796875 C 89.398438 121.796875 89.460938 121.796875 89.546875 121.796875 C 90.703125 124.117188 91.148438 126.773438 90.957031 129.722656 C 90.765625 132.96875 90.175781 135.960938 91.566406 138.320312 C 92.621094 140.132812 93.949219 141.605469 96.644531 141.753906 C 95.105469 139.539062 92.875 136.886719 92.539062 133.390625 C 92.453125 132.566406 92.453125 131.347656 92.683594 130.691406 C 93.402344 128.648438 96.433594 127.910156 98.375 129.132812 C 100.269531 130.3125 101.175781 132.671875 101.722656 135.097656 C 102.398438 137.941406 102.039062 140.871094 103.21875 143.1875 C 103.832031 144.347656 104.695312 145.546875 105.707031 146.09375 C 105.832031 146.179688 107.730469 146.539062 107.710938 147.148438 C 107.6875 147.992188 105.980469 147.402344 105.917969 147.378906 C 105.242188 147.085938 104.800781 146.664062 104.507812 146.390625 C 102.882812 144.976562 101.828125 143.441406 101.132812 140.933594 C 100.816406 139.792969 100.816406 138.617188 100.691406 137.351562 C 100.4375 134.949219 99.679688 132.691406 98.585938 131.367188 C 98.246094 130.945312 97.679688 130.355469 97.023438 130.164062 C 94.140625 129.363281 93.925781 132.019531 94.246094 134.210938 C 94.625 136.65625 95.234375 137.644531 96.414062 139.519531 C 96.835938 140.175781 97.828125 141.058594 97.761719 141.839844 C 97.699219 142.933594 96.054688 142.996094 94.855469 142.746094 C 92.011719 142.089844 89.566406 139.183594 88.871094 136.675781 C 88.617188 135.75 88.554688 134.464844 88.636719 133.242188 C 88.890625 129.40625 90.367188 126.140625 89.3125 122.011719 C 89.3125 121.949219 89.3125 121.863281 89.3125 121.796875 Z M 85.648438 123.296875 C 87.164062 122.746094 87.207031 124.917969 86.109375 125.003906 C 85.183594 125.085938 84.65625 123.652344 85.648438 123.296875 Z M 105.242188 127.996094 C 106.886719 127.46875 106.65625 129.722656 105.539062 129.722656 C 104.820312 129.722656 104.167969 128.351562 105.242188 127.996094 Z M 85.730469 128.226562 C 87.226562 127.785156 87.183594 129.933594 86.109375 130.015625 C 85.035156 130.101562 84.65625 128.542969 85.730469 128.226562 Z M 97.40625 134.738281 C 98.375 134.484375 99.195312 135.8125 98.289062 136.445312 C 97.089844 137.308594 95.886719 135.117188 97.40625 134.738281 Z M 88.34375 142.890625 C 88.175781 143.082031 88.152344 143.378906 87.964844 143.566406 C 87.816406 143.566406 87.667969 143.566406 87.523438 143.566406 C 86.910156 143.039062 87.796875 142.429688 88.34375 142.890625 Z M 95.085938 147 C 95.71875 146.808594 95.78125 147.863281 95.234375 147.886719 C 94.8125 147.90625 94.390625 147.191406 95.085938 147 Z M 100.839844 148.054688 C 101.300781 147.949219 101.746094 148.140625 101.894531 148.347656 C 102.882812 149.824219 100.019531 150.792969 100.019531 149.023438 C 100.019531 148.390625 100.269531 148.160156 100.839844 148.054688 Z M 56.863281 0.996094 C 56.925781 0.996094 56.925781 1.039062 56.925781 1.082031 C 60.214844 5.402344 63.773438 10.4375 67.019531 14.90625 C 69.546875 18.359375 71.695312 22.027344 73.910156 25.839844 C 74.648438 27.082031 75.679688 28.371094 75.554688 29.949219 C 74.164062 29.421875 73.488281 27.949219 72.707031 26.8125 C 71.128906 24.472656 69.441406 22.195312 67.925781 19.773438 C 67.167969 18.550781 66.449219 17.328125 65.691406 16.105469 C 62.59375 11.21875 59.476562 6.246094 56.863281 0.996094 Z M 35.242188 0.0273438 C 39.308594 4.390625 42.027344 10.734375 45.484375 15.957031 C 45.949219 15.8125 46.179688 15.15625 46.917969 15.136719 C 47.464844 15.117188 48.582031 15.832031 49.296875 16.253906 C 51.449219 17.519531 54.082031 18.550781 56.1875 19.710938 C 62.300781 23.039062 67.273438 26.894531 72.117188 31.445312 C 74.519531 33.722656 76.859375 36.0625 78.925781 38.484375 C 81.03125 40.929688 82.949219 43.605469 85.054688 46.175781 C 87.164062 48.746094 89.019531 51.527344 90.660156 54.414062 C 93.992188 60.207031 97.300781 66.214844 99.785156 72.957031 C 102.566406 72.429688 105.136719 73.230469 107.117188 74.304688 C 108.53125 75.0625 109.878906 75.84375 110.933594 76.769531 C 111.859375 77.589844 112.722656 78.625 113.691406 79.53125 C 116.496094 82.101562 118.792969 85.449219 120.5 89.179688 C 122.859375 94.300781 125.640625 99.0625 126.039062 105.554688 C 126.273438 109.175781 125.871094 113.222656 124.25 115.816406 C 124.144531 116.972656 123.828125 117.859375 122.753906 117.902344 C 121.425781 117.964844 120.941406 116.363281 120.582031 115.054688 C 119.488281 111.074219 118.308594 107.300781 116.242188 104.519531 C 113.25 100.476562 109.984375 97.292969 105.328125 95.542969 C 105.644531 97.757812 105.242188 100.074219 105.390625 102.351562 C 105.453125 103.046875 105.644531 103.722656 105.621094 104.4375 C 105.601562 104.878906 105.371094 105.324219 105.242188 105.933594 C 104.988281 107.15625 104.925781 108.101562 104.421875 108.925781 C 103.957031 109.703125 102.421875 111.453125 101.050781 111.328125 C 99.238281 111.160156 99.007812 107.238281 97.847656 106.460938 C 97.742188 106.839844 97.996094 107.238281 98.140625 107.578125 C 100.039062 111.8125 101.933594 116.175781 103.074219 121.335938 C 103.324219 122.453125 104.441406 126.539062 102.925781 126.792969 C 102.230469 126.921875 101.34375 125.464844 100.902344 124.792969 C 97.214844 118.976562 93.167969 113.625 90.070312 107.429688 C 86.910156 101.171875 84.066406 94.953125 81.097656 88.210938 C 80.484375 86.820312 79.410156 84.335938 81.6875 84.105469 C 83.308594 83.933594 84.171875 85.386719 85.203125 86.335938 C 90.535156 91.226562 93.925781 98.285156 97.023438 105.109375 C 98.796875 104.332031 100.121094 103.066406 101.660156 102.054688 C 101.703125 101.550781 101.578125 101.234375 101.578125 100.769531 C 101.386719 100.9375 101.21875 101.550781 100.542969 101.382812 C 99.765625 101.171875 99.511719 98.664062 99.257812 97.484375 C 98.417969 93.207031 97.40625 88.949219 96.496094 84.988281 C 95.191406 79.300781 93.421875 74.074219 91.863281 69.289062 C 92.578125 69.5 92.894531 70.007812 93.210938 70.492188 C 94.328125 72.261719 95 74.601562 95.824219 76.769531 C 96.625 78.878906 97.59375 81.003906 98.289062 83.132812 C 99.804688 87.6875 100.628906 92.742188 101.429688 97.714844 C 101.238281 92.046875 99.976562 86.882812 98.519531 82.078125 C 97.046875 77.234375 95.867188 72.449219 93.800781 68.089844 C 90.304688 69.078125 85.476562 67.5 82.589844 65.917969 C 78.417969 63.644531 76.082031 60.671875 74.140625 56.058594 C 72.222656 51.527344 71.382812 42.992188 75.109375 39.304688 C 72.792969 36.671875 70.644531 34.183594 68.222656 31.445312 C 66.492188 29.464844 64.679688 27.71875 62.46875 26.136719 C 61.457031 25.398438 60.300781 25.039062 60.003906 23.816406 C 57.894531 22.257812 55.664062 20.824219 53.34375 19.476562 C 53.492188 19.878906 54.566406 20.128906 54.3125 20.824219 C 54.164062 21.203125 53.660156 21.308594 52.964844 21.203125 C 52.101562 22.027344 51.492188 23.144531 50.417969 23.816406 C 49.910156 24.136719 49.214844 24.324219 48.476562 24.640625 C 46.980469 25.273438 45.886719 26.304688 43.777344 26.285156 C 42.933594 35.554688 43.839844 44.785156 45.273438 52.832031 C 47.253906 51.632812 49.296875 50.472656 52.289062 50.285156 C 57.8125 49.945312 62.066406 52.285156 65.082031 55.234375 C 68.644531 58.710938 71.003906 63.328125 70.621094 70.113281 C 70.371094 74.558594 68.578125 78.222656 66.050781 80.730469 C 63.460938 83.324219 60.191406 85.21875 55.808594 85.664062 C 59.621094 94.175781 65.882812 101.636719 73.085938 107.367188 C 74.792969 108.714844 76.710938 110.105469 78.777344 111.390625 C 79.453125 111.832031 80.335938 112.550781 80.800781 112.59375 C 81.453125 112.675781 82.65625 112.105469 83.414062 111.855469 C 85.160156 111.265625 86.257812 110.507812 88.050781 109.894531 C 88.703125 109.683594 90.410156 109.21875 90.597656 109.894531 C 90.808594 110.757812 89.1875 110.96875 88.722656 111.390625 C 89.480469 112.527344 90.34375 113.558594 91.1875 114.613281 C 91.800781 114.507812 92.707031 114.109375 93.210938 114.53125 C 93.085938 115.667969 91.417969 116.109375 90.28125 116.550781 C 88.996094 117.058594 87.585938 117.625 86.257812 117.605469 C 85.203125 117.585938 84.234375 117.121094 83.476562 116.703125 C 82.699219 116.277344 82.128906 115.605469 81.390625 115.140625 C 79.558594 113.980469 77.492188 113.351562 76.164062 112.148438 C 75.636719 112.78125 75.152344 113.117188 74.878906 113.707031 C 73.953125 115.753906 74.203125 118.679688 74.667969 121.042969 C 75.597656 125.867188 76.773438 129.46875 78.546875 133.683594 C 78.863281 134.441406 79.347656 135.539062 79.894531 136.445312 C 80.359375 137.222656 81.410156 138.402344 81.011719 139.289062 C 80.757812 139.878906 79.242188 140.027344 78.167969 139.816406 C 74.035156 138.992188 70.835938 135.285156 68.453125 132.484375 C 63.269531 126.394531 58.867188 119.226562 57.222656 109.601562 C 56.335938 104.394531 56.546875 98.976562 58.949219 95.164062 C 52.523438 85.851562 47.023438 75.359375 43.777344 62.335938 C 42.21875 56.121094 40.996094 48.957031 40.996094 41.097656 C 40.996094 35.195312 40.871094 29.023438 41.292969 23.375 C 41.4375 21.523438 41.546875 19.519531 42.050781 18.128906 C 42.21875 17.664062 42.746094 17.371094 42.789062 16.78125 C 42.828125 16.296875 42.15625 15.347656 41.816406 14.695312 C 40.828125 12.714844 39.796875 10.351562 38.972656 8.5625 C 37.582031 5.484375 36.53125 2.472656 35.242188 0.0273438 " fill-opacity="1" fill-rule="evenodd"/></g></svg>